<?xml version="1.0" encoding="utf-8"?>
<!-- Generator: Adobe Illustrator 28.0.0, SVG Export Plug-In . SVG Version: 6.00 Build 0)  -->
<svg version="1.1" id="Layer_2_00000088134302236593198560000012752248250418535059_"
	 xmlns="http://www.w3.org/2000/svg" xmlns:xlink="http://www.w3.org/1999/xlink" x="0px" y="0px" viewBox="0 0 500 103.5"
	 style="enable-background:new 0 0 500 103.5;" xml:space="preserve">
<g id="Kuznetsov_Kuznetsov_MOD_CV">
	<path fill="#ed392a" d="M497.7,66.2l-6.9,3.6l-30.3,25.8l-3.4,4.4l0.8,3.1H18.9v-2.7c-4.8-1.5-7.5-5.3-7.5-5.3v-5.2H8.7v-6.1H5.5
		c0,0-0.2-1.2-0.9-1.1c-1.2,0.2-2.1,0.5-2.1,0.5v-5.4l0.4-0.6v-4.6l157.4-0.1V61.6l-2.7-0.9l-3.7-0.4l0.1-0.5l1.3-0.4L154,56h4
		l0.4-1.5c-0.4-0.2-0.7-0.6-0.7-1.2c0-0.7-0.2-1.2,0.4-1.3c1-0.1,0.3,0.8,0.6,0.9c0.5,0.3,1.2,0.1,1.2,0.6s-0.3,0.8-0.6,0.9v1.7h6.8
		l5.6-21.6l0.1-1.4l1.7,0.1c0-0.2,0-0.4,0-0.5c0-2.1,1.7-3.8,3.8-3.8c2.1,0,3.8,1.7,3.8,3.8c0,0.7-0.2,1.3-0.5,1.9l0,0h3.5v-3.6
		l-0.1-1.8l1.2,0.1v-9.8h0.6v8.7l0.7,0.2v-3l0.8,0.4v2.7h16.1l0.1-2.7l0.9-0.1v2.7l-0.6,0.4l2.3,13.7h4.6l1-6.5l-1.8-0.7l-0.1-0.2
		h0.6v-3.3h0c-0.5-0.5-0.9-1.1-0.9-1.9c0-1.4,1.1-2.5,2.5-2.5c1.4,0,2.5,1.1,2.5,2.5c0,0.7-0.3,1.4-0.9,1.9h0.6l0.4,1.5h0.7v-1.1
		c-0.4-0.3-0.6-0.8-0.6-1.3c0-0.9,0.8-1.7,1.7-1.7s1.7,0.8,1.7,1.7c0,0.6-0.3,1.2-0.8,1.5v2.5h3l2.9-15l-3.2-0.2l-0.3-1.1l0.9-1.4
		l0.5,1.8h4.3l0.1-2.2l-5-2.1l2.5-5.7l1.7,1.2h1.3v-1c0,0-0.7-0.1-0.8-0.3c-0.2-0.2-0.2-0.9,0-1.1c0.3-0.2,1.1-0.1,1.4,0.1l0.4,2.8
		h1.4V9.9h1.1l0.9,6.1l-3.5,1.2v1.9h5.5V0.5h0.5v7.4l0.2,0.2v4.2h0.4v8.4l-3.9,2.1l0.9,6.9h0.3c0.4-0.2,0.8-0.4,1.3-0.4
		c1.4,0,2.5,1.1,2.5,2.5c0,0.5-0.1,0.9-0.4,1.3l0.5,0.5v1.7h1.4v-2.5l-0.3-1.2c-0.2-0.3-0.3-0.7-0.3-1.1c0-1.1,0.9-2.1,2.1-2.1
		s2.1,0.9,2.1,2.1c0,0.1,0,0.1,0,0.2l1.9,1.9v2.4h1.3l3.9,16.2h1.5v-1.7c-1.2-1.2-0.3-2.1,0.7-2.1c0.9,0,1.9,0.9,0.7,2.1v1.7
		l11.7-0.4l-1.2,4.1l1.2,0.2l-0.1,0.7l-1.2,0.1l-0.7,3.5l0.7,0.1l0.3,0.7l-5.5,2l-0.3,9.7l165,0.7l20.6-1.7
		c3.8,0.7,45.3-8.4,45.3-8.4h9.4c0,0,0.9,1.4,2.1,2.1C498.6,65,497.7,66.2,497.7,66.2L497.7,66.2z"/>
</g>
</svg>
