<?xml version="1.0" encoding="UTF-8"?>
<svg id="Layer_1" data-name="Layer 1" xmlns="http://www.w3.org/2000/svg" version="1.1" xmlns:xlink="http://www.w3.org/1999/xlink" viewBox="0 0 300 293">
  <defs>
    <style>
      .cls-1 {
        fill: #f2f2f2;
      }

      .cls-1, .cls-2, .cls-3, .cls-4, .cls-5, .cls-6, .cls-7, .cls-8 {
        stroke-width: 0px;
      }

      .cls-2, .cls-9, .cls-7, .cls-10 {
        display: none;
      }

      .cls-2, .cls-6, .cls-7, .cls-8 {
        fill: #fff;
      }

      .cls-3, .cls-11 {
        fill: none;
      }

      .cls-9 {
        opacity: .3;
      }

      .cls-4 {
        fill: #459687;
      }

      .cls-5 {
        fill: url(#_10_lpi_50_);
      }

      .cls-6 {
        opacity: .29;
      }

      .cls-7 {
        fill-rule: evenodd;
      }

      .cls-11 {
        stroke: #f2f2f2;
        stroke-width: 3.6px;
      }
    </style>
    <pattern id="_10_lpi_50_" data-name="10 lpi 50%" x="0" y="0" width="72" height="72" patternTransform="translate(-115.12 25657.99) rotate(-150) scale(6)" patternUnits="userSpaceOnUse" viewBox="0 0 72 72">
      <g>
        <rect class="cls-3" width="72" height="72"/>
        <g>
          <line class="cls-11" x1="71.75" y1="68.4" x2="144.25" y2="68.4"/>
          <line class="cls-11" x1="71.75" y1="54" x2="144.25" y2="54"/>
          <line class="cls-11" x1="71.75" y1="39.6" x2="144.25" y2="39.6"/>
          <line class="cls-11" x1="71.75" y1="25.2" x2="144.25" y2="25.2"/>
          <line class="cls-11" x1="71.75" y1="10.8" x2="144.25" y2="10.8"/>
          <line class="cls-11" x1="71.75" y1="61.2" x2="144.25" y2="61.2"/>
          <line class="cls-11" x1="71.75" y1="46.8" x2="144.25" y2="46.8"/>
          <line class="cls-11" x1="71.75" y1="32.4" x2="144.25" y2="32.4"/>
          <line class="cls-11" x1="71.75" y1="18" x2="144.25" y2="18"/>
          <line class="cls-11" x1="71.75" y1="3.6" x2="144.25" y2="3.6"/>
        </g>
        <g>
          <line class="cls-11" x1="-.25" y1="68.4" x2="72.25" y2="68.4"/>
          <line class="cls-11" x1="-.25" y1="54" x2="72.25" y2="54"/>
          <line class="cls-11" x1="-.25" y1="39.6" x2="72.25" y2="39.6"/>
          <line class="cls-11" x1="-.25" y1="25.2" x2="72.25" y2="25.2"/>
          <line class="cls-11" x1="-.25" y1="10.8" x2="72.25" y2="10.8"/>
          <line class="cls-11" x1="-.25" y1="61.2" x2="72.25" y2="61.2"/>
          <line class="cls-11" x1="-.25" y1="46.8" x2="72.25" y2="46.8"/>
          <line class="cls-11" x1="-.25" y1="32.4" x2="72.25" y2="32.4"/>
          <line class="cls-11" x1="-.25" y1="18" x2="72.25" y2="18"/>
          <line class="cls-11" x1="-.25" y1="3.6" x2="72.25" y2="3.6"/>
        </g>
        <g>
          <line class="cls-11" x1="-72.25" y1="68.4" x2=".25" y2="68.4"/>
          <line class="cls-11" x1="-72.25" y1="54" x2=".25" y2="54"/>
          <line class="cls-11" x1="-72.25" y1="39.6" x2=".25" y2="39.6"/>
          <line class="cls-11" x1="-72.25" y1="25.2" x2=".25" y2="25.2"/>
          <line class="cls-11" x1="-72.25" y1="10.8" x2=".25" y2="10.8"/>
          <line class="cls-11" x1="-72.25" y1="61.2" x2=".25" y2="61.2"/>
          <line class="cls-11" x1="-72.25" y1="46.8" x2=".25" y2="46.8"/>
          <line class="cls-11" x1="-72.25" y1="32.4" x2=".25" y2="32.4"/>
          <line class="cls-11" x1="-72.25" y1="18" x2=".25" y2="18"/>
          <line class="cls-11" x1="-72.25" y1="3.6" x2=".25" y2="3.6"/>
        </g>
      </g>
    </pattern>
  </defs>
  <path class="cls-4" d="M129.84,6.66L41.05,57.92c-13.26,7.65-21.42,21.8-21.42,37.11v102.53c0,15.31,8.17,29.45,21.42,37.11l88.79,51.26c13.26,7.65,29.59,7.65,42.85,0l88.79-51.26c13.26-7.65,21.42-21.8,21.42-37.11v-102.53c0-15.31-8.17-29.45-21.42-37.11L172.69,6.66c-13.26-7.65-29.59-7.65-42.85,0Z"/>
  <path class="cls-6" d="M268.99,101.87c-.45-14.8-8.55-28.36-21.45-35.8l-74.81-43.11c-6.64-3.83-14.06-5.74-21.47-5.74-6.98,0-13.97,1.7-20.31,5.1-.38.21-.77.42-1.15.64l-20.5,11.81-21.6,12.45-21.63,12.46-11.09,6.39c-3.5,2.02-6.64,4.49-9.38,7.32-5.1,5.25-8.77,11.72-10.65,18.79-.94,3.54-1.43,7.24-1.43,11v86.23c0,.47.01.94.02,1.4.48,14.76,8.58,28.28,21.44,35.71l74.82,43.11c6.64,3.83,14.05,5.74,21.46,5.74,6.96,0,13.93-1.68,20.25-5.06.41-.22.82-.45,1.22-.68l20.43-11.77,21.39-12.33,21.63-12.46,11.36-6.55c3.27-1.88,6.22-4.16,8.83-6.75,5.19-5.16,8.98-11.57,10.99-18.59,1.08-3.78,1.65-7.73,1.65-11.77v-86.23c0-.44-.01-.88-.02-1.31ZM151.26,26.22c5.95,0,11.81,1.56,16.96,4.53l74.81,43.12c8.43,4.85,14.29,13.09,16.24,22.4L140.66,27.92c3.41-1.12,6.99-1.7,10.6-1.7ZM151.26,266.37c-5.94,0-11.8-1.57-16.95-4.54l-74.82-43.11c-8.4-4.84-14.23-13.01-16.2-22.29l118.47,68.27c-3.38,1.1-6.92,1.67-10.5,1.67ZM184.13,252.66L42.54,171.06v-24.66l162.99,93.93-21.4,12.33ZM243.03,218.72l-15.87,9.15L42.54,121.47v-18.29c0-2.13.2-4.23.6-6.29l205.04,118.17c-1.58,1.37-3.31,2.6-5.16,3.66ZM259.99,189.41c0,2.4-.26,4.78-.76,7.08L53.72,78.06c1.75-1.58,3.69-2.99,5.77-4.19l15.61-8.99,184.89,106.55v17.98ZM259.99,146.5L96.72,52.41l21.6-12.44,141.67,81.64v24.89Z"/>
  <g class="cls-9">
    <path class="cls-5" d="M445.36,491.43c-6.72,0-13.35-1.78-19.17-5.14l-74.67-43.11c-11.83-6.83-19.17-19.55-19.17-33.21v-86.23c0-13.66,7.35-26.38,19.17-33.21l74.67-43.11c5.82-3.36,12.45-5.14,19.17-5.14s13.35,1.78,19.17,5.14l74.67,43.11c11.83,6.83,19.17,19.55,19.17,33.21v86.23c0,13.66-7.35,26.38-19.17,33.21l-74.67,43.11c-5.82,3.36-12.45,5.14-19.17,5.14Z"/>
    <path class="cls-1" d="M445.36,246.78c5.93,0,11.79,1.57,16.92,4.53l74.67,43.11c10.44,6.03,16.92,17.26,16.92,29.31v86.23c0,12.05-6.49,23.29-16.92,29.31l-74.67,43.11c-5.14,2.97-10.99,4.54-16.92,4.54s-11.79-1.57-16.92-4.54l-74.67-43.11c-10.44-6.03-16.92-17.26-16.92-29.31v-86.23c0-12.05,6.49-23.29,16.92-29.31l74.67-43.11c5.14-2.97,10.99-4.54,16.92-4.54M445.36,237.78c-7.4,0-14.8,1.91-21.42,5.74l-74.67,43.11c-13.26,7.65-21.42,21.8-21.42,37.11v86.23c0,15.31,8.17,29.45,21.42,37.11l74.67,43.11c6.63,3.83,14.03,5.74,21.42,5.74s14.8-1.91,21.42-5.74l74.67-43.11c13.26-7.65,21.42-21.8,21.42-37.11v-86.23c0-15.31-8.17-29.45-21.42-37.11l-74.67-43.11c-6.63-3.83-14.03-5.74-21.42-5.74h0Z"/>
  </g>
  <g id="F16" class="cls-10">
    <path class="cls-8" d="M196.06,186.34c-.5-.23-1.1.01-1.38.49l-7.68,13.3-18.23-49.43c3.63-7.02,4.18-18.07,12.1-37.29,2.46-5.97,5.01-10.58,5.69-15.35,5.92-11.7,8.71-19.1,10.12-31.08l4.44-7.94-.3-.18-4.65,7.81c-9.67,7.21-14.69,13.33-21.86,24.31-3.8,2.98-6.51,7.49-10.45,12.6-12.69,16.47-21.98,22.47-26.25,29.12l-51.93,8.92,7.68-13.3c.28-.48.18-1.12-.27-1.44-.52-.37-1.23-.21-1.54.33l-16.11,27.9,1.83,1.06.85-1.47,38.78,22.39-7.44,12.89-28.8,5.24-4.02,6.97,1.48,5.54,15.56,8.99,1.57-2.72,4.45,2.57,7.56-13.1.47.27-6.81,15.42,4.93,2.84-3.09,5.34c-.23.41-.1.92.31,1.16s.92.1,1.16-.31l3.09-5.34,4.93,2.84,9.95-13.61.47.27-7.56,13.1,4.45,2.57-1.57,2.72,15.56,8.99,5.54-1.48,4.02-6.97-9.87-27.56,7.44-12.89,38.78,22.39-.85,1.47,1.83,1.06,16.11-27.9c.31-.54.1-1.23-.48-1.5Z"/>
  </g>
  <path id="Anchor" class="cls-2" d="M165.33,211.63c-1.87-1.49-3.31-7.76-4.4-16.88,1.42.59,3.05.59,4.52-.02,1.24,1.35,2.47,2.7,3.67,4.08-1.13,2.06-.98,4.62.5,6.44.76.92,1.49,1.85,2.22,2.79.72.94,1.43,1.88,2.12,2.83,1.36,1.86,3.75,2.65,6.03,2.12.76,1.18,1.49,2.37,2.19,3.58-5.51.86-11.3-.53-16.85-4.94ZM133.6,152.23c-.82-.87-1.63-1.74-2.42-2.62-.79-.88-1.56-1.76-2.3-2.65-1.59-1.88-4.27-2.43-6.69-1.48-.96-1.37-1.83-2.79-2.53-4.24.83-.67,1.47-1.49,1.95-2.28.33-.57.61-1.12.77-1.61.09-.24.16-.46.2-.66.05-.19.06-.34.03-.73-.11-1.03-.15-2.04-.13-3,.02-.97.11-1.89.27-2.76.21-1.1-.13-2.15-.78-3.29-.46-.78-1.07-1.61-1.87-2.32.76-1.36,1.74-2.6,2.9-3.67.88.61,1.83,1,2.72,1.24,1.29.33,2.48.32,3.56-.24.85-.44,1.77-.83,2.74-1.19.97-.35,1.99-.67,3.04-.95,2.24-.59,3.99-2.78,4.18-5.38,1.66-.28,3.35-.5,5.03-.68.15.42.34.81.57,1.18,0,15.12-.19,32.25-.81,47.87-1.86-1.16-4.25-1.13-6.13.05-1.23-1.19-2.45-2.39-3.66-3.6,1.35-2.23,1.12-5.12-.66-6.99ZM157.58,108.38c.67.11,1.28.44,1.73.92-.06,0-.13,0-.19,0-.7.03-1.29.49-1.53,1.11,0-.69,0-1.37,0-2.04ZM176.53,199.6c.8.98,1.59,1.97,2.37,2.98.77,1.01,1.54,2.02,2.29,3.06.71.99.75,2.24.22,3.23-.12-.17-.24-.34-.36-.52-.55-.79-1.63-.96-2.4-.4-.78.56-.97,1.62-.44,2.38.04.05.07.1.11.16-.84-.08-1.63-.5-2.15-1.21-.71-.98-1.44-1.94-2.17-2.9-.74-.96-1.49-1.91-2.27-2.85-.56-.69-.76-1.56-.63-2.4.04.05.08.1.12.15.6.71,1.67.8,2.42.19.74-.61.85-1.69.24-2.42-.13-.16-.27-.32-.4-.48,1.09-.25,2.29.1,3.05,1.04ZM160.23,181.94c.89.88,1.77,1.77,2.65,2.66.88.89,1.76,1.79,2.62,2.69.83.86,1.05,2.08.67,3.14-.14-.15-.28-.3-.43-.45-.65-.69-1.74-.7-2.43-.04-.69.66-.72,1.75-.08,2.42.04.05.09.09.13.14-.85.04-1.7-.27-2.32-.91-.17-.18-.34-.35-.51-.53-.3-2.96-.57-6.15-.82-9.53.18.12.36.25.52.41ZM157.61,114.5c0-.95-.01-1.9-.02-2.83.26.67.91,1.14,1.66,1.11.21,0,.41-.02.62-.02-.42.91-1.25,1.58-2.26,1.75ZM181.18,113.03c-1.27.17-2.54.31-3.81.43-1.27.12-2.53.22-3.79.31-1.2.08-2.28-.54-2.84-1.5.21-.01.41-.02.62-.04.95-.06,1.66-.88,1.6-1.84-.07-.95-.87-1.68-1.8-1.62-.06,0-.13,0-.19.01.52-.68,1.3-1.13,2.18-1.19,1.22-.09,2.43-.18,3.63-.3,1.2-.12,2.4-.25,3.59-.41.86-.11,1.7.17,2.34.72-.06.01-.12.02-.19.03-.9.14-1.53,1.01-1.41,1.96.13.95,1,1.61,1.95,1.46.21-.03.41-.07.62-.1-.35,1.07-1.29,1.92-2.51,2.08ZM204.1,101.54c-.75,1.32-1.69,2.55-2.75,3.61-1.06,1.06-2.24,1.96-3.45,2.73-1.19.74-2.52.63-3.44-.04.2-.09.4-.19.59-.28.91-.45,1.2-1.55.7-2.36-.51-.81-1.49-1.12-2.25-.74-.05.03-.11.05-.16.08.17-.8.62-1.49,1.25-1.89.88-.56,1.68-1.18,2.38-1.87.7-.69,1.27-1.46,1.75-2.29.34-.57.97-1.03,1.73-1.25-.02.05-.04.11-.06.16-.28.73.09,1.67.93,2.14.83.47,1.93.09,2.3-.9.08-.21.16-.43.23-.64.77.86.99,2.25.25,3.56ZM202.87,75.95c.47,1.2.92,2.42,1.33,3.66.41,1.24.78,2.5,1.11,3.79.31,1.24-.15,2.45-1.04,3.16-.04-.21-.08-.42-.12-.63-.18-.97-1.14-1.55-2.06-1.32-.94.23-1.5,1.12-1.34,1.99.01.06.02.12.04.18-.73-.4-1.28-1.06-1.49-1.87-.29-1.12-.61-2.24-.98-3.36-.37-1.12-.77-2.23-1.21-3.34-.32-.81-.25-1.69.13-2.45.02.06.05.12.07.17.37.84,1.35,1.25,2.24.9.89-.35,1.33-1.37.95-2.25-.08-.19-.17-.39-.25-.58,1.12.08,2.17.78,2.62,1.93ZM186.69,56.54c1.23.56,2.44,1.21,3.61,1.93,1.17.73,2.31,1.54,3.39,2.45,1.05.89,1.36,2.21.99,3.29-.15-.16-.3-.33-.45-.48-.71-.73-1.84-.68-2.46.05-.62.73-.61,1.76-.03,2.36.04.04.08.09.12.13-.81.08-1.6-.13-2.18-.62-.82-.69-1.7-1.33-2.64-1.91-.94-.58-1.92-1.11-2.95-1.58-.74-.34-1.29-1-1.55-1.8.06.02.11.04.17.07.82.32,1.79-.09,2.19-.96.4-.87,0-1.91-.92-2.27-.2-.08-.4-.15-.6-.23.85-.75,2.12-.99,3.31-.44ZM169.97,52.3c1.25.12,2.22.94,2.6,2-.21-.03-.42-.06-.63-.09-.96-.13-1.82.57-1.91,1.52-.09.95.56,1.8,1.46,1.91.06,0,.12.02.19.03-.62.57-1.44.87-2.29.79-.04,0-.08,0-.12-.01,0-2.22-.42-4.34-1.16-6.3.62.04,1.24.09,1.87.15ZM169.07,61.18s.04,0,.06,0c2.16.2,4.31-1.01,5.48-3.04,1.75.33,3.48.75,5.17,1.26.09,2.33,1.37,4.39,3.17,5.23.94.43,1.82.91,2.66,1.42.83.52,1.6,1.07,2.31,1.67.89.76,2.02,1.03,3.36,1.02.73-.01,1.52-.11,2.32-.34.46.68.87,1.39,1.24,2.15.41.81.8,1.63,1.18,2.45-1.67,1.65-2.27,4.11-1.44,6.2.42,1.07.81,2.13,1.16,3.19.36,1.06.66,2.12.93,3.17.34,1.33,1.18,2.37,2.36,3.13.65.41,1.39.74,2.2.93.16,1.71.15,3.4-.1,5.01-.81.13-1.57.38-2.24.65-1.21.52-2.08,1.09-2.53,1.85-.35.61-.77,1.18-1.31,1.71-.53.53-1.17,1.03-1.9,1.49-1.38.88-2.46,2.97-2.42,5.3-1.63.59-3.34,1.05-5.08,1.42-1.21-2-3.39-3.16-5.63-2.87-1.15.15-2.31.28-3.49.4-1.18.11-2.36.21-3.56.29-2.36.17-4.35,1.84-5.05,4.08-1.83.09-3.67.16-5.52.23-.81-1.96-2.65-3.37-4.82-3.55-.01-3.94-.01-7.66,0-11.09h24.97c3.4,0,6.16-2.76,6.16-6.16s-2.76-6.16-6.16-6.16h-24.91c.02-2.86.04-5.19.06-6.87,5.97-2.29,10.42-7.66,11.38-14.17ZM143.16,58.52c0-4.47,3.62-8.09,8.09-8.09s8.09,3.62,8.09,8.09-3.62,8.09-8.09,8.09-8.09-3.62-8.09-8.09ZM125.2,114c1.24-.64,2.5-1.17,3.77-1.64,1.27-.46,2.55-.85,3.82-1.19.95-.25,1.87-.05,2.58.46-.07.01-.13.03-.2.04-.96.21-1.54,1.17-1.29,2.09.24.93,1.15,1.49,2.04,1.29.2-.04.39-.08.59-.13-.28,1.08-1.08,1.95-2.14,2.23-1.12.3-2.22.63-3.28,1.02-1.06.39-2.09.83-3.06,1.33-.9.46-2.02.37-2.96-.2.16-.11.32-.21.49-.31.73-.47,1.01-1.48.57-2.33-.44-.85-1.54-1.15-2.42-.59-.06.04-.12.07-.17.11.17-.87.74-1.7,1.67-2.17ZM115.06,139.23c-.71-.42-1.26-1.46-1.33-2.37-.14-1.34-.21-2.71-.17-4.1.03-1.39.16-2.79.42-4.2.2-1.06.84-1.86,1.64-2.26-.02.07-.04.13-.06.2-.31,1.02.29,2.01,1.23,2.19.94.18,1.83-.36,2.08-1.17.05-.18.11-.36.17-.54.8.75,1.19,1.78,1.02,2.73-.19,1.03-.29,2.1-.32,3.2-.03,1.09.02,2.21.14,3.34.07.77-.19,1.24-.6,1.88-.17.23-.37.46-.61.67-.05-.18-.11-.35-.15-.53-.21-.79-1.04-1.36-2-1.29-.95.07-1.64,1.08-1.36,2.15.02.07.04.15.06.22-.06-.03-.12-.07-.18-.11ZM127.12,158.37c-.87-.92-1.73-1.85-2.58-2.79-.85-.95-1.69-1.91-2.51-2.9-.61-.73-.82-1.65-.67-2.5.04.05.08.11.12.16.6.77,1.7.87,2.44.26.74-.61.85-1.68.28-2.4-.12-.16-.25-.32-.37-.48,1.09-.22,2.23.13,2.95,1,.77.92,1.56,1.82,2.36,2.72.81.9,1.63,1.79,2.47,2.67.79.84,1.01,2.04.65,3.09-.14-.15-.29-.29-.43-.44-.65-.67-1.73-.68-2.43-.03-.69.66-.72,1.75-.06,2.44.05.05.09.09.14.14-.86.04-1.72-.27-2.36-.95ZM141.5,172.51l-2.7-2.57c-.66-.63-.97-1.49-.93-2.35.05.04.09.09.14.13.68.65,1.77.62,2.43-.07.66-.69.65-1.78-.03-2.43-.15-.14-.3-.28-.44-.43,1.06-.37,2.26-.15,3.11.66l.82.78c-.12,2.78-.26,5.51-.42,8.15l-1.98-1.88ZM219.71,159.49l-24.8,30.86,14.46-4.35c-3.63,14.15-12.89,26.14-23.69,29.72-.84-1.51-1.73-2.98-2.66-4.43,1.79-1.91,2.06-4.94.38-7.25-.76-1.06-1.55-2.09-2.34-3.12-.8-1.02-1.6-2.04-2.42-3.03-1.78-2.17-4.72-2.69-7.05-1.49-1.14-1.3-2.3-2.59-3.46-3.85,1.44-2.18,1.25-5.15-.66-7.14-.88-.91-1.76-1.81-2.65-2.71-.89-.9-1.77-1.79-2.67-2.68-.76-.76-1.68-1.25-2.65-1.49-1.22-18.35-1.7-41.36-1.87-61.26,2.53-.23,4.58-2.14,5.09-4.61,1.72-.07,3.43-.14,5.15-.22.75,2.5,3.12,4.27,5.9,4.08,1.28-.09,2.56-.19,3.86-.32,1.29-.12,2.6-.27,3.91-.44,2.88-.37,4.93-2.72,5.03-5.34,1.72-.37,3.43-.83,5.11-1.43.6.9,1.45,1.58,2.5,1.94,1.49.53,3.4.39,5.16-.72,1.36-.86,2.7-1.89,3.93-3.11,1.23-1.22,2.32-2.65,3.2-4.19,1.15-1.99,1.14-4.2.41-5.69-.5-1.06-1.33-1.81-2.32-2.24.27-1.83.27-3.66.11-5.47,1.01-.36,1.88-1.03,2.5-1.94.88-1.3,1.22-3.09.79-4.83-.35-1.35-.73-2.68-1.17-3.98-.42-1.3-.89-2.56-1.38-3.81-1.08-2.72-3.79-4.08-6.35-3.58-.37-.79-.75-1.57-1.13-2.35-.39-.82-.85-1.62-1.37-2.39.71-.81,1.14-1.83,1.17-2.99.06-1.64-.75-3.5-2.28-4.79-1.19-1.01-2.44-1.9-3.72-2.7-1.28-.79-2.58-1.48-3.9-2.09-2.93-1.34-5.9-.27-7.26,1.97-1.69-.51-3.4-.92-5.12-1.25-.15-2.61-2.25-4.92-5.24-5.2-1.16-.1-2.21-.19-3.46-.22-3.14-5.3-8.91-8.85-15.51-8.85-9.95,0-18.01,8.06-18.01,18.01,0,7.54,4.63,13.99,11.21,16.68.03,1.7.08,4.08.13,7.02h-24.61c-3.4,0-6.16,2.76-6.16,6.16s2.76,6.16,6.16,6.16h24.78c.05,4.28.08,9.02.1,14.06-.33.51-.59,1.07-.75,1.66-1.87.2-3.74.44-5.6.76-1.2-2.04-3.7-3.21-6.41-2.5-1.35.35-2.7.77-4.06,1.27-1.36.49-2.72,1.08-4.08,1.77-1.74.89-2.95,2.49-3.29,4.1-.2.89-.13,1.77.15,2.57-1.53,1.39-2.85,3.05-3.85,4.88-.85-.08-1.72.07-2.55.5-1.49.76-2.75,2.43-3.12,4.45-.29,1.57-.43,3.13-.46,4.64-.04,1.52.03,2.99.19,4.43.03.4.15,1.03.32,1.57.18.53.4,1.02.67,1.44.54.84,1.21,1.46,1.93,1.85.8.44,1.66.61,2.5.56.85,1.82,1.88,3.47,3,5.04-1.32,1.98-1.24,4.78.48,6.82.85,1.02,1.71,2.01,2.58,2.97.87.97,1.75,1.91,2.63,2.85,1.76,1.85,4.38,2.27,6.53,1.29,1.31,1.32,2.64,2.62,3.97,3.91-.95,2.15-.52,4.76,1.28,6.47l2.71,2.58,2.7,2.56c.29.28.61.52.95.73-1.19,17.92-3.19,31.55-6.51,33.85-18.81,13-38.53-3.34-44.12-25.78l14.94,4.5-24.8-30.86-14.29,36.97,12.23-7.98c5.8,24.78,25.47,43.24,49.44,53.23l2.55,1.02c.51.2,1.03.4,1.55.59,1.58.58,4.16,1.84,6.84,3.22l4.12,2.17c3.23,1.74,5.83,3.2,5.83,3.2,0,0,12.36-6.97,16.78-8.6,6.92-2.56,13.54-5.81,19.64-9.7l7.87-5.62c12.8-10.2,22.37-23.65,26.08-39.76l12.59,8.21-14.29-36.97Z"/>
  <path id="Flame" class="cls-7" d="M166.72,56c-42.33,20.45-42.23,52.19-40.53,74.22.59,7.52-4.5,12.73-10.83,13.02-6.58.31-12.61-4.25-13.02-10.83l-.59-9.4c-8.26,14.38-12.58,29.47-12.58,43.25,0,29.85,15.88,58.28,43.17,66.88-4.53-4.9-7.63-11.71-7.63-19.93,0-30.1,25.15-33.54,25.15-65.52,2.9,4.19,5.61,8.56,8.09,13.04,9.4,17.08,7.87,36.76,2.7,47.04,5.03-1.75,10.28-7.73,12.54-17.01,2.07,7.75,4.13,15.12,4.13,22.23,0,8.25-3.35,15.15-8.13,20.11,37.12-10.87,52.51-52.68,35.81-85.52-11.16-21.93-53.38-54.56-38.27-91.58h0Z"/>
  <g>
    <polygon class="cls-8" points="175 119.96 167.53 119.96 175 123.06 175 119.96"/>
    <polygon class="cls-8" points="128.46 123.06 135.94 119.96 128.46 119.96 128.46 123.06"/>
    <path class="cls-8" d="M180.82,114.14h52.36v-26.18c0-1.61-1.3-2.91-2.91-2.91h-49.45v29.09Z"/>
    <rect class="cls-8" x="128.46" y="85.06" width="46.54" height="29.09"/>
    <polygon class="cls-8" points="180.82 125.46 233.18 147.13 233.18 119.96 180.82 119.96 180.82 125.46"/>
    <polygon class="cls-8" points="122.64 119.96 70.28 119.96 70.28 147.13 122.64 125.46 122.64 119.96"/>
    <path class="cls-8" d="M122.64,85.06h-49.45c-1.61,0-2.91,1.3-2.91,2.91v26.18h52.36v-29.09Z"/>
    <circle class="cls-8" cx="125.55" cy="157.78" r="2.91"/>
    <circle class="cls-8" cx="177.91" cy="157.78" r="2.91"/>
    <path class="cls-8" d="M238.8,156.71c-.29-.73-.87-1.32-1.59-1.62l-84.36-34.91c-.36-.15-.74-.22-1.11-.22s-.76.07-1.11.22l-84.36,34.91c-.73.3-1.3.89-1.59,1.62-.29.73-.27,1.56.06,2.27l24.51,53.88c.47.05.93.18,1.41.18,5.3,0,10.21-2.79,12.8-7.27,1.55-2.7,4.45-4.37,7.56-4.37s5.99,1.67,7.56,4.36c2.59,4.49,7.5,7.27,12.8,7.27s10.21-2.79,12.8-7.27c1.55-2.7,4.45-4.37,7.56-4.37s5.99,1.67,7.56,4.36c2.59,4.49,7.5,7.27,12.8,7.27s10.21-2.79,12.8-7.27c1.55-2.7,4.45-4.37,7.56-4.37s5.99,1.67,7.56,4.36c2.59,4.49,7.5,7.27,12.8,7.27.48,0,.93-.14,1.4-.18l24.51-53.88c.33-.72.35-1.54.06-2.27ZM125.55,166.51c-4.81,0-8.73-3.91-8.73-8.73s3.91-8.73,8.73-8.73,8.73,3.91,8.73,8.73-3.91,8.73-8.73,8.73ZM157.55,192.69c0,1.61-1.3,2.91-2.91,2.91s-2.91-1.3-2.91-2.91v-52.36c0-1.61,1.3-2.91,2.91-2.91s2.91,1.3,2.91,2.91v52.36ZM177.91,166.51c-4.81,0-8.73-3.91-8.73-8.73s3.91-8.73,8.73-8.73,8.73,3.91,8.73,8.73-3.91,8.73-8.73,8.73Z"/>
    <path class="cls-8" d="M113.92,79.24h84.36v-2.91c0-1.61-1.3-2.91-2.91-2.91h-2.91v-8.73c0-1.61-1.3-2.91-2.91-2.91h-26.18v-8.73c0-1.61-1.3-2.91-2.91-2.91h-17.45c-1.61,0-2.91,1.3-2.91,2.91v8.73h-26.18c-1.61,0-2.91,1.3-2.91,2.91v8.73h-2.91c-1.61,0-2.91,1.3-2.91,2.91v2.91h8.73Z"/>
    <path class="cls-8" d="M234.64,207.62c-.46-.27-.97-.4-1.46-.4-1.01,0-1.98.52-2.51,1.46-3.63,6.28-10.47,10.18-17.85,10.18s-14.22-3.9-17.84-10.18c-.52-.9-1.48-1.45-2.52-1.45h0c-1.04,0-2,.55-2.52,1.45-3.63,6.28-10.47,10.18-17.85,10.18s-14.22-3.9-17.84-10.18c-.52-.9-1.48-1.45-2.52-1.45h0c-1.04,0-2,.55-2.52,1.45-3.63,6.28-10.47,10.18-17.85,10.18s-14.22-3.9-17.84-10.18c-.52-.9-1.48-1.45-2.52-1.45h0c-1.04,0-2,.55-2.52,1.45-3.63,6.28-10.47,10.18-17.85,10.18s-14.22-3.9-17.84-10.18c-.54-.93-1.52-1.46-2.52-1.46-.49,0-.99.13-1.45.4-1.39.8-1.87,2.58-1.07,3.97,4.66,8.07,13.43,13.09,22.88,13.09,7.95,0,15.41-3.55,20.36-9.48,4.95,5.93,12.41,9.48,20.37,9.48s15.41-3.55,20.36-9.48c4.95,5.93,12.41,9.48,20.37,9.48s15.41-3.55,20.36-9.48c4.95,5.93,12.41,9.48,20.37,9.48,9.44,0,18.21-5.02,22.88-13.09.81-1.39.33-3.17-1.06-3.97Z"/>
  </g>
  <path id="Plane" class="cls-2" d="M173.94,81.04c-8.21,13.19-13.82,23.2-16.02,27.21-.64,1.18-1.89,1.9-3.23,1.87l-20.25-.44,3.96-6.77c1.09-1.87.47-4.26-1.4-5.36l-5.52-3.23c-1.87-1.09-4.26-.47-5.36,1.4l-7.96,13.6-47.74-1.04c-2.19-.05-4.23,1.09-5.34,2.98l-2.11,3.6c-.31.53-.05,1.22.54,1.4l62.9,19.91c.57.18,1.11.44,1.6.78l7.71,5.25c.96.66,1.26,1.94.69,2.96-3.75,6.61-16.81,29.95-22.65,44.15l-33.34,3.7c-1.21.13-2.29.83-2.9,1.89l-2.33,3.98c-.33.56-.05,1.28.57,1.48l30.27,9.7c.77.25,1.15,1.1.83,1.84-1.45,3.3-3.3,9.03-3.5,15.06,5.15-3.12,9.25-7.54,11.42-10.42.49-.64,1.42-.73,2.01-.18l23.28,21.65c.48.44,1.24.33,1.57-.23l2.33-3.98c.62-1.05.7-2.33.22-3.46l-13.09-30.89c9.53-12.04,23.49-34.85,27.42-41.35.6-1,1.87-1.37,2.92-.85l8.35,4.16c.53.27,1.03.61,1.46,1.02l48.14,45.11c.45.42,1.17.32,1.49-.22l2.11-3.6c1.11-1.89,1.1-4.23-.01-6.12l-24.26-41.12,7.96-13.6c1.09-1.87.47-4.26-1.4-5.36l-5.52-3.23c-1.87-1.09-4.26-.47-5.36,1.4l-3.96,6.77-10.29-17.45c-.68-1.16-.66-2.59.05-3.73,2.42-3.88,8.41-13.67,15.89-27.28,9.81-17.85,2.74-30.07,2.74-30.07,0,0-14.12-.18-24.89,17.11Z"/>
</svg>