<?xml version="1.0" encoding="utf-8"?>
<!-- Generator: Adobe Illustrator 28.0.0, SVG Export Plug-In . SVG Version: 6.00 Build 0)  -->
<svg version="1.1" id="Layer_2_00000009560613365349010300000007140480084248905098_"
	 xmlns="http://www.w3.org/2000/svg" xmlns:xlink="http://www.w3.org/1999/xlink" x="0px" y="0px" viewBox="0 0 500 100.4"
	 style="enable-background:new 0 0 500 100.4;" xml:space="preserve">
<g id="Jiangdao_MOD_WFFL">
	<path fill="#f1f1f1" d="M498.6,75.4l-10.5,11.9l1.3,1.2c0.2,0.2,0.3,0.6,0.1,0.8l-0.8,0.9c-0.2,0.2-0.6,0.3-0.8,0.1l-1.3-1.2l-0.3,0.3l-2.7,1.3
		l-7.1,9.4H4.8L2.6,87.8l0.5-6.5c-2.6,0.8-1.9-1.4-1.9-1.4l2.7-1.7l0.3-4.6H2.8c-0.7-0.5,0-1.9,0-1.9h111.1c4.2-2.2,6.6-6.5,6.6-6.5
		l0.1-1.4l-0.8-0.3v-3.2h3.3v-1.5l-0.7-0.9l1.1-1h0.5l-0.1-2.5h1.6l-0.5,2.5l0.3,0.7v2.2h11.8v-1.3l-2.5-1.3l-1.4-4.2l-0.4-1.5
		l0.6-2.8h0c0-1.9,2.4-3.8,5.3-3.8s5.3,2.2,5.3,3.8l-1.3,8.9l-3,1.2l0.1,1.1l26.1-0.1l4.6-17.4l-0.3-1l-1.4-0.8v-0.4h4.2l1.7,7.5
		h2.5l-5.8-39.5l0.6-0.1l5.8,39.5l0,0h2l1.1-1.1l0,0c0,0,0,0,0,0l-5.7-38.4l0.6-0.1l5.6,38.2c0.1,0,0.1,0,0.2,0c0.5,0,0.9,0.4,0.9,1
		c0,0.2-0.1,0.5-0.3,0.6l0,0l-1.5,1.3l-1.7,0.3l-3.8,1.1l1.8,8.9h10.7v-3.7l-1.2-0.3v-2.6h1c0-0.1,0-0.2,0-0.2c0-2.5,2-4.5,4.5-4.5
		c2.5,0,4.5,2,4.5,4.5c0,0.1,0,0.2,0,0.2h0v6.1l0.7,0.6h12.1l1.1-3.9l1.7-1.1l2.3-6.2l-5.3-4.7v-0.8l24.5-2.1h0V0.3h1.1v40.4
		l1.3-0.1l4.8,20.8l1.6,0.8v2.3l1.7,4.9v3.9h9.7v-1.5l-1.5-0.6v-3.3c0,0,4.6-0.6,5.2,0c0.6,0.6,1.9,1.4-0.1,3.8v2h2.8l2-5.2l0.3-1
		l-1-0.9v-3.2h2.4l0.6-1.3h1.3l-0.7,4l-0.5,2.6v4.7h1.7v-5.1l1.6-0.2l1.4-1h0.9l0.8,1.3h1.4l3.2-14.9v-2.8l-0.6-0.6l1.5-2.2
		l-0.8-7.5c0,0-3.9,0.9-5-1.9c-1.1-2.8,1.3-3.6,1.1-2.2c-0.2,1.4,1,2.3,1,2.3l2.7-0.3l-1.4-4l-7.2-3.3l-0.7-1.1l3.3,0.3l-0.7-16.2
		l-4.9-1.5h4.6v-2l-3.6-0.9c0,0-0.9,0.1-1-1.4c-0.1-1.5,1.8-1.4,1.8-1.4l0.1,2.2l2.2,0.3V7.1L267,6l4.6-1.1V0.3h1v6.2H270l-0.5,0.4
		l0.3,2.2l2.6,0.4l-2.4,1.1c0,0,3.7,19,4,19.3l4.4-0.1l0.5-1.3h2.2V25l-1.5-1.1l0.5-0.7l4,0.7v-1.3l-1.9-1v-5.5c0,0,1.5-3.9,4.7,1.5
		v3.9l2.1-0.1l0.3-1.8c0,0,4.7,0.8,1.8,2.5l-2.1,0.6h-3.1v1.1c0.7,0,1.3,0.6,1.3,1.3s-0.6,1.3-1.3,1.3v1.1l-1.4,0.9v1.4h9.7
		l-0.1-1.1l0.1-0.9l-3.7,0.5l0.7-0.7l1.1-0.3l2.3,0.3c0,0,0,0-0.1,0c0.2,0,0.6,0,0.9,0.1c0.3,0,0.6-0.1,1-0.1
		c2.8-0.4,2.3,0.6,2.3,0.6H297l-0.7,0.9l-0.1-0.1c0,0.2,0.1,0.5,0.1,0.8v1l1.3,0.7l-0.2,0.4h-1.1l-8.9,3.4l0.2,1.2l0.2,1.3l0,0.1
		l-0.2-1.4l0.9-0.8c0,0,1.6-0.3,0.9,1.2l-1.6,1.1l2.8,10.4h7.4v-4.2l1.6-1.3l0.2-2l0.8-0.2v-3.6c-0.5-0.3-0.8-0.9-0.8-1.5
		c0-1,0.8-1.9,1.9-1.9c0.7,0,1.3,0.4,1.6,0.9c0.2,0.1,0.4,0.2,0.7,0.3c0.8,0.3,1.4-1.3,1.4-1.3l0.6,1.9l-1.9,2.9l-1.2-1.5
		c-0.1,0.1-0.1,0.1-0.2,0.1v2.4l1.9,4.5l0.8,4.1h1.5l0.9-0.8v-1.9h0c-0.6-0.3-1-0.9-1-1.6c0-1,0.8-1.8,1.8-1.8c1,0,1.8,0.8,1.8,1.8
		c0,0.7-0.4,1.3-1,1.6h0.2v1.9l0.6,1h3.5V35.2h0.6v13.2h2.5l-0.1,1.7l0.2,0.5V32h0.6v19.8l0.8,1.7v3.6h3.3v-2.6h4v-2.7l-1.1-1.7h3.6
		V16h0.6v33.8l1.2-1c0,0,0.9-0.2,1.5,0.3V14.6h0.6v34.9l-0.2,0.5l-0.6,0.7v5.1l0.6,0.7h9.5v-3.2h1.5V52l-0.3-2.2
		c0,0,1.4-1.3,2.6-0.3c1.2,1,1.2,2.3,1.2,2.3s-0.3,1.6-0.9,1.7c-0.6,0.1-0.4,0.3-0.4,0.3l-0.1,2.4h5.6l2.5-1.9v-3.1h2.4v-1.9h0
		c0-0.1,0-0.1,0-0.2c0-0.7-0.2-1.3,1.8-1.3c1.2,0,1.7,0.2,1.8,0.6V35.2h0.6V49l-0.5,0.5v5.6h4V32h0.6v23.1h0.6l1,0.8l0.1,1.4l-1.8,2
		c0,0-0.2,0.4-0.3,1c-0.2,0.6,0.2,1.7,0.2,1.7l2.8,16.4h2.7v4.2l1.8,1.6h10.5v-3.5c0-0.3,0.3-0.6,0.6-0.6h0.8c0.3,0,0.6,0.3,0.6,0.6
		v3.5h5.4v-3.7h1.6l-0.3-2.1l-2.9-0.7l-0.5-8.5l1.4-3.1h9.4l3.3,3.1h3.5l0.8,1.8h17.4v1.1l-11.8,0.1c0,0-0.3,0.1-0.8,0.7
		c-0.5,0.6-2.4,0.7-2.4,0.7l0.4,4.6l16.9-0.7v-1.7c0-0.3,0.3-0.6,0.6-0.6h0.8c0.3,0,0.6,0.3,0.6,0.6v1.6l6.4-0.3
		c0.1-0.1,0.3-0.2,0.4-0.3v-2.5c0-0.3,0.3-0.6,0.6-0.6h1.5c0.3,0,0.6,0.3,0.6,0.6v2c0.2,0,0.3,0,0.3,0l62.1-1.7
		C498.6,74.6,498.9,75.1,498.6,75.4L498.6,75.4z"/>
</g>
</svg>
