<?xml version="1.0" encoding="UTF-8"?>
<svg id="Layer_1" data-name="Layer 1" xmlns="http://www.w3.org/2000/svg" version="1.1" viewBox="0 0 503.2 130.8">
  <defs>
    <style>
      .cls-1 {
        fill: #5cb1e6;
        stroke-width: 0px;
      }
    </style>
  </defs>
  <path class="cls-1" d="M503,79.4l-39.6,2.8c.1-1.9-2.1-3.5-3.6-3.1-1.2.4-1.6,2.4.3,2.1.7,0,.6.6.5,1.1l-20.6,1.5c-.2-1.8-.9-1.8-1.7-2.1s-.8,1.3-.9,2.3l-23.6,1.7s0,7.1-5.4,7.7h-4.5v-19.8l4.1-7.4v-4.2h-2.2l-1.6,1.6h-12v-14.6c0-.4-.3-.7-.7-.7h-20.2c-.4,0-.7.3-.7.7v12.9c-.4-1.3-1.1-2.8-2.5-2.8l-.3-9.3v-6.3l10.9-6.5h2.6v-1.7h-13.5V15h2.2l1.9-1.7v-1.4h-1.4c0-.1-1.2,1.2-1.2,1.2l-.3.3-1.5-.4-1.8-4.9v-2.8l.7-.6h6.9v-1.3h-6.7l-1-1.1-.9-.2h-.8c0,0-.8.9-.8.9l.6,1.6-.3,4.9s-1,4.4-2.2,4c0,0-2.1.4-2.4-.4V.6c-.1,0-1.7-.4-1.7-.4v15.1h2.8l-2.2,12.1h-1.3s-.9-2.2-2.4-.9c-1.5,1.3-.3,2.6.4,2.8,1.2.3,1.8-.9,1.8-.9l1.2.5-2.8,15.7h-1.2s-.8-2-2.1-.8c-1.3,1.2-.3,2.3.3,2.5,1,.3,1.6-.8,1.6-.8l1.2.5-3.7,20.6h0s-.7,6.2-.7,6.2h-.9v-15c0-.4-.3-.7-.7-.7h-19.5V16.8h-1.3v55.9h-1.6v-2.5c.6-.4,1-.9,1-1.6s-.4-1.2-1-1.6v-9.4c0-.4-.3-.7-.7-.7h-4.8V16.8h-1.3v40.3h-14.1c-.4,0-.7.3-.7.7v4.2h-2.7v10.3h-3.6v-4.3c.9-.7,1.6-2.4,1.6-4.4s-1.2-4.8-2.6-4.8-2.6,2.1-2.6,4.8.6,3.6,1.5,4.4v4.3h-2.9v20.2h-7.3v-13.4l-1.6-1.2v-7.2l1.3-1.4-8.7-5.3v-2.8c-1.8-1.8-3.2,0-3.2,0v2.7h-.5v.9h-31.1l-1.8-1.5-1.7.3c.3-.3-4.9-.6-3,2.8,1.1,1.9,3.7-1,3.6-.6h1.6s3,2.7,3,2.7h21.8l13.3,7.6v1.8l-1.2.8-.3,19.8-5.2,7.9-1.4.6-12.2-21.1-15.6,5.1-1.2,3.2c-9.7,6.2-9.1,11.1-9.2,12.4h-2.4v3h-13.5c0,0,0-.1,0-.2,0-3.8-3.5-6.8-7.9-6.8s-7.9,3.1-7.9,6.8v.2h-5.7c-.5-3.3-3.3-5.9-6.8-5.9s-3.6.8-4.9,2h-.4v-16.1h-5.7v-6.5h-6.8l-.2,6.2h-10.4l-.8-24.2h-5.1c-.1-1.5-1-4.2-6-3.6v1.9s3.2-.8,3.5,1.7h-6.6c-.7-3.2-2.9-2.2-2.9-2.2l-.8,2.2h-7.7l2.8,2.1-1.8,29.3h-7.5c-.4-8.3-7.4-15-15.9-15s-15.9,7.1-15.9,15.9,1.2,7,3.3,9.6l-5.9.5v.8h-18v-3.1l-1-.5,3.7-8.7-1.2-7.1s-15.4-11.9-15.9-9.8l-3.9-2.2-1,.3v2.7c-.1,0-.6.4-.6.4l3.3,22-.6,1.8-1.4.8.8,1.4,6,1.3,3-5.7-3.7-14.6.8-.6,8.7,3.6-4.9,11.2-2.4,6.7-32.8-.5v-3.1h-14.3v2.4h-4.2l-3.5-2.3v-25h2.7v-3H0v3.2l1.7.6v39.2l1-.2v11.6h461.2v-7.5l31.4-37.8,5.8-.2,2.1-1.2-.3-4.8ZM368,37h8.2l-8.2,3.9v-3.9ZM237,109.6v-3.1h-.6c.3-6.6,11.1-9.7,11.1-9.7v2.9c0,0,.8,1,.8,1l.4,9h-11.6ZM250.9,109.6v-12.1l6.1-4.4,1.1-.2-6.1,16.4.5.3h-1.6,0ZM257.2,103.3l1.3,1v1.6h-3.8c0-.2,5-13.1,5-13.1l.5,5.3c-3,.6-3.1,5.3-3.1,5.3h0ZM265.9,109.3h-2.1v-3.5h-2.3l2.7-2.6v-5.3h.7c0,0,5.1,9.6,5.1,9.6l-4.2,1.7h0ZM323.2,70.6v2.1h-3.7v-3.2s0,0,0,0c.5,0,.8-.4.8-.8v-3.4h1.8v2.2c-.4.3-.6.8-.6,1.2,0,.9.8,1.6,1.9,1.9h-.2ZM325.4,66.6c-.2,0-.5,0-.8,0s-.5,0-.8,0v-1.4h1.6v1.4ZM325.4,63.6h-1.6v-3.2c0-.5-.4-.8-.8-.8s-.8.4-.8.8v3.2h-1.8v-3.2c0-.5-.4-.8-.8-.8s-.8.4-.8.8v1.5h-1.8v-1.5c0-.5-.4-.8-.8-.8s-.8.4-.8.8v1.5h-1.8v-1.5c0-.5-.4-.8-.8-.8s-.8.4-.8.8v1.5h-1.8v-1.5c0-.5-.4-.8-.8-.8s-.8.4-.8.8v1.5h-1.7v-3.5h18.9v5.2h0ZM338.7,70.6v2.1h-9.1v-7.4h1.7v3.4c0,.5.4.8.8.8s.8-.4.8-.8v-3.4h1.8v3.4c0,.5.4.8.8.8s.8-.4.8-.8v-3.4h1.8v1.7c-.8.4-1.2,1-1.2,1.7s.8,1.6,1.9,1.9h-.2ZM340,66.6v-1.3h1.8v1.6c-.5-.2-1-.3-1.6-.3s-.1,0-.2,0ZM348.5,72.7h-6.9v-2.1h-.2c.8-.2,1.4-.7,1.7-1.2.2-.2.4-.4.4-.7v-3.4h1.8v3.4c0,.5.4.8.8.8s.8-.4.8-.8v-3.4h1.6v7.4ZM348.5,63.6h-1.6v-3.2c0-.5-.4-.8-.8-.8s-.8.4-.8.8v3.2h-1.8v-3.2c0-.5-.4-.8-.8-.8s-.8.4-.8.8v3.2h-1.8v-3.2c0-.5-.4-.8-.8-.8s-.8.4-.8.8v3.2h-1.8v-3.2c0-.5-.4-.8-.8-.8s-.8.4-.8.8v3.2h-1.8v-3.2c0-.5-.4-.8-.8-.8s-.8.4-.8.8v3.2h-1.7v-5.2h18.9v5.2h0ZM364.2,63.5h-4.4v2.1h-7.2l1.8-10h9.7v7.9ZM364.2,53.9h-9.4l1.5-8.2h7.9v8.2ZM364.2,43.9h-7.6l1.2-6.9h6.4v6.9ZM364.2,35.2h-6.1l1.1-6.3h5v6.3ZM364.2,27.2h-4.6l1-5.8h3.6v5.8ZM364.2,19.6h-3.3l.8-4.3h.3l1.3-1.4.4.4.5.6v4.7h0ZM390.9,63.5h-18.9v-7.1h1.7v3.4c0,.5.4.8.8.8s.8-.4.8-.8v-3.4h1.8v3.4c0,.5.4.8.8.8s.8-.4.8-.8v-3.4h1.8v3.4c0,.5.4.8.8.8s.8-.4.8-.8v-3.4h1.8v3.4c0,.5.4.8.8.8s.8-.4.8-.8v-3.4h1.8v3.4c0,.5.4.8.8.8s.8-.4.8-.8v-3.4h1.6v7.1h0ZM390.9,54.8h-1.6v-3.2c0-.5-.4-.8-.8-.8s-.8.4-.8.8v3.2h-1.8v-3.2c0-.5-.4-.8-.8-.8s-.8.4-.8.8v3.2h-1.8v-3.2c0-.5-.4-.8-.8-.8s-.8.4-.8.8v3.2h-1.8v-3.2c0-.5-.4-.8-.8-.8s-.8.4-.8.8v3.2h-1.8v-3.2c0-.5-.4-.8-.8-.8s-.8.4-.8.8v3.2h-1.7v-5.2h18.9v5.2h0Z"/>
</svg>