<?xml version="1.0" encoding="UTF-8"?>
<svg id="Layer_2" data-name="Layer 2" xmlns="http://www.w3.org/2000/svg" version="1.1" viewBox="0 0 510 113">
  <defs>
    <style>
      .cls-1 {
        fill: #e2e0df;
        stroke-width: 0px;
      }
    </style>
  </defs>
  <g id="Luyang_III_DDG" data-name="Luyang III DDG">
    <path class="cls-1" d="M509.6,84.3l-53.4,2s-1.9-4.7-3.7-.2l-25.8,1.4-1-5.3,4.3-.2.5-.7h18.7l-.2-1.5-14.3.3-.9-.3h-8.1s-2.8-3.7-4.2-4.3c-1.9-.8-8.4,0-8.4,0,0,0-4.5,2-4.8,3.5l5,8.3-.8.8-8.6.3v-6.5h-.9s0,6.5,0,6.5l-31.7,1.1-6.4,3.9-4.1-.2-3.7-13.2h-4.1l-1.2-1.9v-3.1h4.5l.2-1.2h-4.3l-1.9-1.2h-3.1v-4.5h-3v2.4h.8v2.1h-1.5v4.8l-1,2.5h-6.4l-7.6-19.4,2.1-3.5-1.4-2.7-.8,2.1v-6.3h-1.4v-17.9h-1.7v21.9l-1,1.2.6-3.9-2.9-.4v3.7h-2.3v-1.9l-2.6-.6.2,4.8h-1.7v-3.5h-1.7v-4.5s-4.7-7-9.9,0v7.5c0,0-1.4.5-1.4.5l-2.5-1.7v-2.7h-2.3v-4.1l-2.7-1.9.2-.8,2.5.5v-4.7c0,0-2.3.5-2.3.5l-1.2-.4-1.7,1-.2,2.1.6.6.4,1.4-1,1.2h-2.9v-1.7h-2.1v1.7h-2.1l-.2-7.4,5-.6v-3.4h-1.9v1.5h-4.1v-.8l6.4-3.1v-.8h1.9l-.2-1.2h-6.4v1.2h2.5v1.2h-3.5l-1.2-3.3,6.8-1.9v-1.4h-3.7v-5.8s-4.7-5.4-10.1,0l.2,4.7h-1.4v-8l2.3-1v-2.5h-1.7v2.1h-1v-2.1l2.2-2.2-.3-1-2.4,2.4v-5.7c.1,0,1.3-.8,1.3-.8v-2.2h-1.3c0-.1,0-5.1,0-5.1l-1.7-.6v27.6h-4.1l8.9,3.9-6.9,48.3-1.7-.3-11.8-6.6h-10.5v13.8h-.9v-6.5h-1.3v-12.9h-2.3v-7.7h-10.5v8.1h-2.5v-2.8h-1.9v-24.9h-1.2v28.2l-7.4.8v-13.9h-1.1v14c0,0-.9.1-.9.1l-1.1,17h-6.2v-1.7h-5.2v-19.9h-.8v18.2h-1.3v-.7h-5v-1.4c2.4-2.5.4-6.2-2.5-6.2s-4.7,3.7-2.3,6.2v1.9h-3.3l-1.2-15.4-2-3.2h12.9l-1.7-2.4v-2.7s1.6-3.2,1.6-3.2h-28.1l1.9,2.7v3.2c0,0-1.6,2.3-1.6,2.3h12.9v2.5h-3.7v2.9h-2.9l2.3,2.5-1.4,9.9h-2.2v-2.8h-3.3v3.2h-5.7v-2.3c2.6-1.2,1.1-4.6-1.2-4.6s-3.8,3-1,4.6v2.3h-6.7c0,0,0,4.7,0,4.7l-15.6.4-5.9-4.4-2.2-7.6h-5.1l-1.2-2.8v-1.8h2.9v-4.8h-11v4.4l3.3.7v2.8l-1.2,2.1h-27.8l-6.3-1v-3.7h-5.1v4.5h-6.3v6.7l-1.7,1.2v8.9s-1.7,5.5-8,6.2H.1v5.8l7,8.3h471.7l15.4-15.4,4.3-.4c.5,0,.7-.6.5-1l-.8-1.3,11.6-9.9c.3-.3.1-.8-.3-.8h0ZM185.7,63.3l2.1-2.8,2.1,2.8h-4.2,0ZM189.3,60.5h4.2l-2.1,2.8-2.1-2.8h0ZM196.8,63.3h-4.2l2.1-2.8,2.1,2.8h0ZM196.8,57.1l-2.1,2.8-2.1-2.8h4.2,0ZM193.4,59.9h-4.2l2.1-2.8,2.1,2.8h0ZM189.8,57.1l-2.1,2.8-2.1-2.8h4.2,0ZM186.5,59.9h-4.2l2.1-2.8,2.1,2.8h0ZM182.9,57.1l-2.1,2.8-2.1-2.8h4.2,0ZM179.6,59.9h-4.2l2.1-2.8,2.1,2.8h0ZM172,57.1h4.2l-2.1,2.8-2.1-2.8h0ZM172,63.3l2.1-2.8,2.1,2.8h-4.2,0ZM175.4,60.5h4.2l-2.1,2.8-2.1-2.8h0ZM178.7,63.3l2.1-2.8,2.1,2.8h-4.2,0ZM182.3,60.5h4.2l-2.1,2.8-2.1-2.8h0Z"/>
  </g>
</svg>